<?xml version="1.0"?>
<svg xmlns="http://www.w3.org/2000/svg" id="Capa_1" enable-background="new 0 0 512 512" height="512px" viewBox="0 0 512 512" width="512px" class=""><g><path d="m129.667 387.75h324.325c4.143 0 7.5-3.357 7.5-7.5v-311.13c0-4.143-3.357-7.5-7.5-7.5h-395.984c-4.143 0-7.5 3.357-7.5 7.5v311.13c0 4.143 3.357 7.5 7.5 7.5h36.325c4.143 0 7.5-3.357 7.5-7.5s-3.357-7.5-7.5-7.5h-28.825v-296.13h380.984v296.13h-316.825c-4.143 0-7.5 3.357-7.5 7.5s3.357 7.5 7.5 7.5z" data-original="#000000" class="active-path" data-old_color="#000000" fill="#2F55D4"/><path d="m206.415 262.49c20.846 0 37.805-16.96 37.805-37.806s-16.959-37.805-37.805-37.805-37.805 16.959-37.805 37.805 16.959 37.806 37.805 37.806zm0-60.61c12.574 0 22.805 10.23 22.805 22.805s-10.23 22.806-22.805 22.806-22.805-10.23-22.805-22.806c0-12.575 10.231-22.805 22.805-22.805z" data-original="#000000" class="active-path" data-old_color="#000000" fill="#2F55D4"/><path d="m105.396 299.954 28.189 28.189c1.407 1.406 3.315 2.196 5.305 2.196s3.896-.791 5.304-2.197l19.062-19.07c5.567 2.855 11.385 5.142 17.395 6.836v25.952c0 4.143 3.357 7.5 7.5 7.5h39.859c4.143 0 7.5-3.357 7.5-7.5v-26.95c4.829-1.558 9.532-3.509 14.065-5.836l19.061 19.068c1.407 1.406 3.314 2.197 5.304 2.197h.001c1.989 0 3.896-.79 5.304-2.196l13.354-13.354c14.62 13.314 34.042 21.442 55.327 21.442 45.354 0 82.252-36.898 82.252-82.252s-36.898-82.252-82.252-82.252c-20.144 0-38.609 7.291-52.924 19.356-1.656-4.375-3.628-8.622-5.918-12.709l18.352-18.351c2.929-2.93 2.929-7.678 0-10.607l-28.189-28.189c-1.407-1.406-3.315-2.196-5.305-2.196s-3.896.791-5.304 2.197l-19.061 19.068c-4.533-2.327-9.235-4.278-14.065-5.836v-26.95c0-4.143-3.357-7.5-7.5-7.5h-39.862c-4.143 0-7.5 3.357-7.5 7.5v25.952c-6.01 1.694-11.827 3.98-17.395 6.836l-19.062-19.07c-1.407-1.406-3.314-2.197-5.304-2.197-.001 0-.001 0-.001 0-1.989 0-3.896.79-5.304 2.196l-28.189 28.189c-2.929 2.93-2.929 7.678 0 10.607l18.352 18.351c-3.058 5.457-5.556 11.188-7.471 17.136h-26.956c-4.143 0-7.5 3.357-7.5 7.5v43.351c0 4.143 3.357 7.5 7.5 7.5h26.957c1.915 5.948 4.413 11.679 7.471 17.136l-18.352 18.351c-2.928 2.928-2.928 7.676 0 10.606zm309.781-45.975c0 37.083-30.169 67.252-67.252 67.252s-67.252-30.169-67.252-67.252 30.169-67.252 67.252-67.252 67.252 30.169 67.252 67.252zm-276.673 23.475c2.502-2.503 2.915-6.414.989-9.384-4.709-7.263-8.176-15.189-10.305-23.559-.846-3.324-3.839-5.651-7.269-5.651h-25.1v-28.35h25.1c3.43 0 6.423-2.327 7.269-5.651 2.129-8.369 5.596-16.296 10.305-23.559 1.926-2.97 1.513-6.881-.989-9.384l-17.197-17.196 17.582-17.582 17.747 17.755c2.425 2.424 6.184 2.896 9.134 1.146 7.447-4.423 15.503-7.576 23.943-9.373 3.462-.738 5.938-3.796 5.938-7.336v-24.32h24.859v25.09c0 3.43 2.327 6.423 5.651 7.269 7.318 1.861 14.35 4.778 20.897 8.669 2.947 1.753 6.71 1.28 9.136-1.145l17.747-17.755 17.582 17.582-17.197 17.196c-2.502 2.503-2.915 6.414-.989 9.384 4.409 6.8 7.718 14.195 9.881 21.994-10.975 13.98-17.545 31.575-17.545 50.686 0 18.674 6.266 35.907 16.792 49.729l-8.524 8.524-17.747-17.755c-2.425-2.424-6.187-2.898-9.136-1.145-6.549 3.892-13.579 6.808-20.896 8.668-3.325.845-5.652 3.838-5.652 7.269v25.091h-24.86v-24.32c0-3.54-2.476-6.598-5.938-7.336-8.44-1.797-16.496-4.95-23.943-9.373-2.949-1.751-6.708-1.277-9.134 1.146l-17.747 17.755-17.582-17.582z" data-original="#000000" class="active-path" data-old_color="#000000" fill="#2F55D4"/><path d="m292.618 259.283 19.14 19.14c1.465 1.464 3.385 2.196 5.304 2.196s3.839-.732 5.304-2.196c2.929-2.93 2.929-7.678 0-10.607l-13.837-13.836 13.837-13.836c2.929-2.93 2.929-7.678 0-10.607-2.93-2.928-7.678-2.928-10.607 0l-19.14 19.14c-2.93 2.928-2.93 7.677-.001 10.606z" data-original="#000000" class="active-path" data-old_color="#000000" fill="#2F55D4"/><path d="m341.81 280.43c.564.129 1.128.191 1.683.191 3.418 0 6.508-2.353 7.304-5.826l8.772-38.279c.925-4.038-1.598-8.061-5.635-8.986-4.045-.926-8.062 1.598-8.986 5.635l-8.772 38.279c-.926 4.037 1.596 8.06 5.634 8.986z" data-original="#000000" class="active-path" data-old_color="#000000" fill="#2F55D4"/><path d="m373.484 278.423c1.465 1.464 3.385 2.196 5.304 2.196s3.839-.732 5.304-2.196l19.14-19.14c2.929-2.93 2.929-7.678 0-10.607l-19.14-19.14c-2.93-2.928-7.678-2.928-10.607 0-2.929 2.93-2.929 7.678 0 10.607l13.837 13.836-13.837 13.836c-2.929 2.93-2.929 7.678-.001 10.608z" data-original="#000000" class="active-path" data-old_color="#000000" fill="#2F55D4"/><path d="m504.5 403.055h-12.703v-344.24c0-15.164-12.336-27.5-27.5-27.5h-74.797c-4.143 0-7.5 3.357-7.5 7.5s3.357 7.5 7.5 7.5h74.797c6.893 0 12.5 5.607 12.5 12.5v344.239h-441.594v-344.239c0-6.893 5.607-12.5 12.5-12.5h306.797c4.143 0 7.5-3.357 7.5-7.5s-3.357-7.5-7.5-7.5h-306.797c-15.164 0-27.5 12.336-27.5 27.5v344.239h-12.703c-4.143 0-7.5 3.357-7.5 7.5v22.224c0 26.416 21.49 47.906 47.906 47.906h326.594c4.143 0 7.5-3.357 7.5-7.5s-3.357-7.5-7.5-7.5h-326.594c-18.144.001-32.906-14.761-32.906-32.906v-14.724h482v14.724c0 18.145-14.762 32.906-32.906 32.906h-54.531c-4.143 0-7.5 3.357-7.5 7.5s3.357 7.5 7.5 7.5h54.531c26.416 0 47.906-21.49 47.906-47.906v-22.224c0-4.142-3.357-7.499-7.5-7.499z" data-original="#000000" class="active-path" data-old_color="#000000" fill="#2F55D4"/></g> </svg>
